<svg viewBox="0 0 120 32" xmlns="http://www.w3.org/2000/svg" fill="currentColor">
  <path d="M16 4C9.37 4 4 9.37 4 16s5.37 12 12 12 12-5.37 12-12S22.63 4 16 4zm0 21.5c-5.24 0-9.5-4.26-9.5-9.5S10.76 6.5 16 6.5s9.5 4.26 9.5 9.5-4.26 9.5-9.5 9.5z"/>
  <path d="M16 9c-3.87 0-7 3.13-7 7s3.13 7 7 7c1.93 0 3.68-.78 4.95-2.05l-1.77-1.77A4.94 4.94 0 0116 20.5c-2.48 0-4.5-2.02-4.5-4.5s2.02-4.5 4.5-4.5c1.17 0 2.23.45 3.03 1.18l1.77-1.77A6.96 6.96 0 0016 9z"/>
  <text x="38" y="22" font-family="system-ui, -apple-system, sans-serif" font-size="16" font-weight="600" fill="currentColor">Qwen</text>
</svg>
